<?xml version="1.0" encoding="UTF-8"?>
<svg xmlns="http://www.w3.org/2000/svg" xmlns:xlink="http://www.w3.org/1999/xlink" width="426pt" height="142pt" viewBox="0 0 426 142" version="1.1">
<g id="surface1">
<path style=" stroke:none;fill-rule:evenodd;fill:rgb(99.198914%,72.499084%,15.299988%);fill-opacity:1;" d="M 142.8125 80.914063 L 142.8125 82.050781 L 354.332031 82.050781 L 354.332031 80.914063 L 142.8125 80.914063 "/>
<path style=" stroke:none;fill-rule:nonzero;fill:rgb(0%,28.999329%,56.498718%);fill-opacity:1;" d="M 153.742188 113.191406 C 153.300781 113.15625 153.230469 113.191406 153.230469 111.925781 C 153.230469 110.851563 153.265625 110.664063 153.828125 110.558594 L 154.171875 110.507813 L 154.171875 110.0625 L 149.296875 110.0625 L 149.296875 110.507813 L 150.136719 110.628906 C 151.007813 110.78125 151.007813 110.851563 151.007813 112.027344 L 151.007813 113.667969 C 150.578125 113.738281 150.136719 113.789063 149.707031 113.789063 C 147.105469 113.789063 145.3125 111.839844 145.3125 108.367188 C 145.3125 105.507813 146.40625 103.285156 149.140625 103.285156 C 151.949219 103.285156 152.339844 105.253906 152.597656 106.296875 L 153.265625 106.210938 C 153.265625 105.046875 153.109375 104.121094 152.890625 103.300781 C 152.136719 102.941406 151.160156 102.632813 149.363281 102.632813 C 146.097656 102.632813 142.8125 104.242188 142.8125 108.503906 C 142.8125 112.832031 145.890625 114.4375 149.484375 114.4375 C 151.417969 114.4375 153.195313 113.789063 153.796875 113.582031 Z M 166.902344 112.949219 C 166.660156 113.070313 165.941406 113.445313 165.019531 113.445313 C 162.675781 113.445313 162.164063 111.597656 161.972656 110.570313 C 163.753906 110.160156 165.652344 109.613281 167.121094 108.929688 C 166.933594 107.9375 166.488281 106.140625 163.734375 106.140625 C 161.785156 106.140625 159.820313 107.679688 159.820313 110.402344 C 159.820313 113.15625 161.804688 114.4375 163.820313 114.4375 C 165.550781 114.4375 166.628906 113.703125 167.070313 113.34375 Z M 161.871094 109.769531 C 161.871094 109.460938 161.871094 106.792969 163.359375 106.792969 C 164.4375 106.792969 164.949219 107.800781 165.070313 109.03125 C 164.027344 109.375 162.949219 109.597656 161.871094 109.769531 Z M 173.539063 112.554688 C 173.539063 113.464844 173.453125 113.652344 172.871094 113.703125 L 172.515625 113.738281 L 172.515625 114.179688 L 176.652344 114.179688 L 176.652344 113.738281 L 176.292969 113.703125 C 175.679688 113.652344 175.59375 113.464844 175.59375 112.554688 L 175.59375 107.785156 C 175.867188 107.492188 176.3125 107.132813 177.011719 107.132813 C 178.792969 107.132813 178.792969 108.777344 178.792969 110.128906 L 178.792969 112.554688 C 178.792969 113.464844 178.707031 113.652344 178.089844 113.703125 L 177.730469 113.738281 L 177.730469 114.179688 L 181.90625 114.179688 L 181.90625 113.738281 L 181.546875 113.703125 C 180.929688 113.652344 180.84375 113.464844 180.84375 112.554688 L 180.84375 109.1875 C 180.84375 106.878906 179.800781 106.140625 178.261719 106.140625 C 176.808594 106.140625 175.984375 106.757813 175.558594 107.132813 L 175.558594 106.140625 C 174.667969 106.191406 173.761719 106.328125 172.480469 106.757813 L 172.480469 107.253906 C 172.546875 107.234375 172.769531 107.152344 173.027344 107.152344 C 173.539063 107.152344 173.539063 107.921875 173.539063 108.519531 Z M 194.617188 112.949219 C 194.378906 113.070313 193.660156 113.445313 192.734375 113.445313 C 190.390625 113.445313 189.878906 111.597656 189.691406 110.570313 C 191.46875 110.160156 193.367188 109.613281 194.839844 108.929688 C 194.652344 107.9375 194.207031 106.140625 191.453125 106.140625 C 189.503906 106.140625 187.535156 107.679688 187.535156 110.402344 C 187.535156 113.15625 189.519531 114.4375 191.539063 114.4375 C 193.265625 114.4375 194.34375 113.703125 194.789063 113.34375 Z M 189.589844 109.769531 C 189.589844 109.460938 189.589844 106.792969 191.078125 106.792969 C 192.152344 106.792969 192.667969 107.800781 192.785156 109.03125 C 191.742188 109.375 190.664063 109.597656 189.589844 109.769531 Z M 201.238281 112.554688 C 201.238281 113.464844 201.152344 113.652344 200.539063 113.703125 L 200.179688 113.738281 L 200.179688 114.179688 L 204.695313 114.179688 L 204.695313 113.738281 L 204.011719 113.652344 C 203.292969 113.566406 203.292969 113.34375 203.292969 112.128906 L 203.292969 107.972656 C 203.515625 107.699219 203.71875 107.628906 203.976563 107.628906 C 204.214844 107.628906 205.207031 108.039063 205.480469 108.109375 C 206.027344 107.730469 206.269531 107.441406 206.507813 106.894531 C 206.269531 106.636719 205.839844 106.140625 205.121094 106.140625 C 204.25 106.140625 203.53125 106.960938 203.191406 107.320313 C 203.191406 106.808594 203.105469 106.449219 203.054688 106.140625 C 201.820313 106.328125 201.460938 106.449219 200.179688 106.878906 L 200.179688 107.320313 C 200.28125 107.289063 200.46875 107.21875 200.726563 107.21875 C 201.238281 107.21875 201.238281 107.988281 201.238281 108.589844 Z M 219.167969 113.789063 C 219.117188 113.804688 219.085938 113.804688 219.03125 113.804688 C 217.9375 113.804688 217.9375 112.539063 217.9375 111.308594 L 217.9375 109.203125 C 217.9375 107.253906 217.5625 106.140625 215.40625 106.140625 C 213.679688 106.140625 212.496094 107.117188 211.726563 107.953125 C 211.863281 108.363281 211.949219 108.503906 212.1875 108.828125 L 212.359375 108.828125 C 212.582031 108.3125 213.078125 107.132813 214.394531 107.132813 C 215.609375 107.132813 215.886719 108.039063 215.886719 109.050781 L 215.886719 109.460938 C 214.464844 109.835938 211.453125 110.417969 211.453125 112.574219 C 211.453125 113.667969 212.359375 114.4375 213.695313 114.4375 C 214.890625 114.4375 215.59375 113.90625 216.074219 113.566406 C 216.347656 113.992188 216.652344 114.4375 217.75 114.4375 C 218.503906 114.4375 218.996094 114.128906 219.21875 114.011719 Z M 215.886719 112.113281 C 215.886719 112.4375 215.9375 112.863281 215.953125 113.035156 C 215.816406 113.136719 215.492188 113.445313 214.910156 113.445313 C 214.140625 113.445313 213.644531 112.832031 213.644531 112.007813 C 213.644531 110.742188 214.722656 110.230469 215.695313 110.230469 C 215.765625 110.230469 215.816406 110.246094 215.886719 110.246094 Z M 224.421875 114.179688 L 228.597656 114.179688 L 228.597656 113.738281 L 228.238281 113.703125 C 227.621094 113.632813 227.535156 113.464844 227.535156 112.554688 L 227.535156 101.863281 C 226.613281 101.863281 225.84375 101.96875 224.421875 102.257813 L 224.421875 102.703125 C 224.492188 102.703125 224.695313 102.667969 224.902344 102.667969 C 225.484375 102.667969 225.484375 103.335938 225.484375 104.839844 L 225.484375 112.554688 C 225.484375 113.464844 225.398438 113.632813 224.78125 113.703125 L 224.421875 113.738281 Z M 247.128906 105.410156 C 247.128906 103.71875 247.128906 103.511719 247.929688 103.394531 L 248.339844 103.34375 L 248.339844 102.894531 L 243.6875 102.894531 L 243.6875 103.34375 L 244.097656 103.394531 C 244.902344 103.511719 244.902344 103.71875 244.902344 105.425781 L 244.902344 111.664063 C 244.902344 113.355469 244.902344 113.558594 244.097656 113.679688 L 243.6875 113.730469 L 243.6875 114.179688 L 248.339844 114.179688 L 248.339844 113.730469 L 247.929688 113.679688 C 247.128906 113.558594 247.128906 113.355469 247.128906 111.664063 Z M 255.21875 112.554688 C 255.21875 113.464844 255.132813 113.652344 254.554688 113.703125 L 254.191406 113.738281 L 254.191406 114.179688 L 258.335938 114.179688 L 258.335938 113.738281 L 257.972656 113.703125 C 257.359375 113.652344 257.273438 113.464844 257.273438 112.554688 L 257.273438 107.785156 C 257.546875 107.492188 257.992188 107.132813 258.691406 107.132813 C 260.472656 107.132813 260.472656 108.777344 260.472656 110.128906 L 260.472656 112.554688 C 260.472656 113.464844 260.386719 113.652344 259.769531 113.703125 L 259.410156 113.738281 L 259.410156 114.179688 L 263.585938 114.179688 L 263.585938 113.738281 L 263.226563 113.703125 C 262.609375 113.652344 262.523438 113.464844 262.523438 112.554688 L 262.523438 109.1875 C 262.523438 106.878906 261.480469 106.140625 259.941406 106.140625 C 258.488281 106.140625 257.664063 106.757813 257.238281 107.132813 L 257.238281 106.140625 C 256.347656 106.191406 255.441406 106.328125 254.160156 106.757813 L 254.160156 107.253906 C 254.226563 107.234375 254.449219 107.152344 254.707031 107.152344 C 255.21875 107.152344 255.21875 107.921875 255.21875 108.519531 Z M 274.6875 108.742188 C 274.6875 108.039063 274.671875 107.289063 274.5 106.621094 C 274.089844 106.398438 273.355469 106.140625 272.449219 106.140625 C 269.402344 106.140625 269.402344 108.246094 269.402344 108.382813 C 269.402344 111.121094 273.253906 110.625 273.253906 112.660156 C 273.253906 113.273438 272.839844 113.789063 272.121094 113.789063 C 270.839844 113.789063 270.070313 112.417969 269.96875 111.480469 L 269.285156 111.480469 C 269.285156 112.503906 269.421875 113.222656 269.589844 113.90625 C 270.207031 114.214844 270.941406 114.4375 271.953125 114.4375 C 274.261719 114.4375 275.203125 113.292969 275.203125 111.976563 C 275.203125 109.359375 271.351563 109.648438 271.351563 107.851563 C 271.351563 107.253906 271.78125 106.792969 272.3125 106.792969 C 273.578125 106.792969 273.953125 108.175781 274.003906 108.742188 Z M 287.453125 114.4375 C 288.308594 114.265625 289.25 114.027344 290.035156 113.753906 L 290.003906 113.308594 C 289.828125 113.34375 289.625 113.328125 289.523438 113.328125 C 288.941406 113.328125 288.941406 112.660156 288.941406 111.257813 L 288.941406 106.140625 C 288.050781 106.191406 287.109375 106.328125 285.828125 106.757813 L 285.828125 107.253906 C 285.894531 107.234375 286.117188 107.152344 286.375 107.152344 C 286.886719 107.152344 286.886719 107.921875 286.886719 108.519531 L 286.886719 113.019531 C 286.648438 113.136719 286.253906 113.445313 285.605469 113.445313 C 283.929688 113.445313 283.671875 112.300781 283.671875 110.949219 L 283.671875 106.140625 C 282.78125 106.191406 281.839844 106.328125 280.558594 106.757813 L 280.558594 107.253906 C 280.628906 107.234375 280.847656 107.152344 281.105469 107.152344 C 281.617188 107.152344 281.617188 107.921875 281.617188 108.519531 L 281.617188 111 C 281.617188 112.898438 281.738281 114.4375 284.390625 114.4375 C 285.671875 114.4375 286.476563 113.875 286.992188 113.566406 Z M 296.640625 112.554688 C 296.640625 113.464844 296.554688 113.652344 295.9375 113.703125 L 295.578125 113.738281 L 295.578125 114.179688 L 300.097656 114.179688 L 300.097656 113.738281 L 299.410156 113.652344 C 298.691406 113.566406 298.691406 113.34375 298.691406 112.128906 L 298.691406 107.972656 C 298.914063 107.699219 299.121094 107.628906 299.378906 107.628906 C 299.617188 107.628906 300.609375 108.039063 300.882813 108.109375 C 301.429688 107.730469 301.671875 107.441406 301.910156 106.894531 C 301.671875 106.636719 301.242188 106.140625 300.523438 106.140625 C 299.652344 106.140625 298.933594 106.960938 298.589844 107.320313 C 298.589844 106.808594 298.503906 106.449219 298.453125 106.140625 C 297.222656 106.328125 296.863281 106.449219 295.578125 106.878906 L 295.578125 107.320313 C 295.683594 107.289063 295.871094 107.21875 296.128906 107.21875 C 296.640625 107.21875 296.640625 107.988281 296.640625 108.589844 Z M 314.570313 113.789063 C 314.519531 113.804688 314.484375 113.804688 314.433594 113.804688 C 313.339844 113.804688 313.339844 112.539063 313.339844 111.308594 L 313.339844 109.203125 C 313.339844 107.253906 312.960938 106.140625 310.808594 106.140625 C 309.078125 106.140625 307.898438 107.117188 307.128906 107.953125 C 307.265625 108.363281 307.351563 108.503906 307.589844 108.828125 L 307.761719 108.828125 C 307.984375 108.3125 308.480469 107.132813 309.796875 107.132813 C 311.011719 107.132813 311.285156 108.039063 311.285156 109.050781 L 311.285156 109.460938 C 309.867188 109.835938 306.855469 110.417969 306.855469 112.574219 C 306.855469 113.667969 307.761719 114.4375 309.097656 114.4375 C 310.292969 114.4375 310.996094 113.90625 311.472656 113.566406 C 311.746094 113.992188 312.054688 114.4375 313.148438 114.4375 C 313.902344 114.4375 314.398438 114.128906 314.621094 114.011719 Z M 311.285156 112.113281 C 311.285156 112.4375 311.335938 112.863281 311.355469 113.035156 C 311.21875 113.136719 310.890625 113.445313 310.3125 113.445313 C 309.539063 113.445313 309.046875 112.832031 309.046875 112.007813 C 309.046875 110.742188 310.121094 110.230469 311.097656 110.230469 C 311.164063 110.230469 311.21875 110.246094 311.285156 110.246094 Z M 320.902344 112.554688 C 320.902344 113.464844 320.816406 113.652344 320.234375 113.703125 L 319.875 113.738281 L 319.875 114.179688 L 324.015625 114.179688 L 324.015625 113.738281 L 323.65625 113.703125 C 323.039063 113.652344 322.953125 113.464844 322.953125 112.554688 L 322.953125 107.785156 C 323.226563 107.492188 323.671875 107.132813 324.375 107.132813 C 326.152344 107.132813 326.152344 108.777344 326.152344 110.128906 L 326.152344 112.554688 C 326.152344 113.464844 326.066406 113.652344 325.453125 113.703125 L 325.09375 113.738281 L 325.09375 114.179688 L 329.265625 114.179688 L 329.265625 113.738281 L 328.90625 113.703125 C 328.292969 113.652344 328.207031 113.464844 328.207031 112.554688 L 328.207031 109.1875 C 328.207031 106.878906 327.164063 106.140625 325.621094 106.140625 C 324.167969 106.140625 323.347656 106.757813 322.921875 107.132813 L 322.921875 106.140625 C 322.03125 106.191406 321.125 106.328125 319.839844 106.757813 L 319.839844 107.253906 C 319.910156 107.234375 320.132813 107.152344 320.386719 107.152344 C 320.902344 107.152344 320.902344 107.921875 320.902344 108.519531 Z M 341.738281 113.15625 C 341.5 113.242188 340.78125 113.445313 340.183594 113.445313 C 338.472656 113.445313 337 112.316406 337 109.769531 C 337 108.039063 337.753906 106.996094 338.847656 106.996094 C 339.839844 106.996094 340.4375 107.679688 340.816406 108.109375 L 340.96875 108.109375 C 341.398438 107.59375 341.550781 107.269531 341.636719 106.707031 C 341.191406 106.382813 340.523438 106.140625 339.308594 106.140625 C 337.394531 106.140625 334.8125 107.492188 334.8125 110.65625 C 334.8125 113.15625 336.949219 114.4375 338.8125 114.4375 C 340.457031 114.4375 341.347656 113.960938 341.894531 113.566406 Z M 354.09375 112.949219 C 353.851563 113.070313 353.132813 113.445313 352.210938 113.445313 C 349.867188 113.445313 349.355469 111.597656 349.164063 110.570313 C 350.945313 110.160156 352.84375 109.613281 354.3125 108.929688 C 354.125 107.9375 353.679688 106.140625 350.925781 106.140625 C 348.976563 106.140625 347.011719 107.679688 347.011719 110.402344 C 347.011719 113.15625 348.992188 114.4375 351.011719 114.4375 C 352.742188 114.4375 353.816406 113.703125 354.261719 113.34375 Z M 349.0625 109.769531 C 349.0625 109.460938 349.0625 106.792969 350.550781 106.792969 C 351.628906 106.792969 352.140625 107.800781 352.261719 109.03125 C 351.21875 109.375 350.140625 109.597656 349.0625 109.769531 "/>
<path style=" stroke:none;fill-rule:evenodd;fill:rgb(0%,28.999329%,56.498718%);fill-opacity:1;" d="M 132.046875 27.828125 L 70.867188 27.828125 L 70.867188 49.839844 C 70.867188 72.59375 83.175781 92.179688 101.457031 102.625 C 130.246094 85.597656 130.5625 57.640625 132.046875 27.828125 "/>
<path style=" stroke:none;fill-rule:evenodd;fill:rgb(99.198914%,72.499084%,15.299988%);fill-opacity:1;" d="M 131.375 43.007813 C 131.535156 40.632813 131.671875 38.234375 131.796875 35.816406 L 128.777344 42.316406 L 131.375 43.007813 "/>
<path style=" stroke:none;fill-rule:evenodd;fill:rgb(99.198914%,72.499084%,15.299988%);fill-opacity:1;" d="M 97.070313 56.304688 L 103.410156 59.285156 L 104.15625 56.304688 L 95.578125 55.742188 L 97.070313 56.304688 "/>
<path style=" stroke:none;fill-rule:evenodd;fill:rgb(99.198914%,72.499084%,15.299988%);fill-opacity:1;" d="M 95.578125 71.039063 L 104.15625 70.480469 L 103.367188 67.308594 Z M 95.578125 71.039063 "/>
<path style=" stroke:none;fill-rule:evenodd;fill:rgb(99.198914%,72.499084%,15.299988%);fill-opacity:1;" d="M 103.410156 84.65625 L 110.5 79.804688 L 108.21875 77.519531 Z M 103.410156 84.65625 "/>
<path style=" stroke:none;fill-rule:evenodd;fill:rgb(99.198914%,72.499084%,15.299988%);fill-opacity:1;" d="M 104.34375 43.433594 L 108.261719 49.214844 L 110.5 47.164063 L 103.410156 42.128906 L 104.34375 43.433594 "/>
<path style=" stroke:none;fill-rule:evenodd;fill:rgb(99.198914%,72.499084%,15.299988%);fill-opacity:1;" d="M 117.027344 35.972656 L 117.585938 43.058594 L 120.570313 42.128906 L 116.839844 34.480469 L 117.027344 35.972656 "/>
<path style=" stroke:none;fill-rule:evenodd;fill:rgb(99.198914%,72.499084%,15.299988%);fill-opacity:1;" d="M 122.996094 41.941406 L 126.167969 41.941406 L 124.675781 29.015625 Z M 122.996094 41.941406 "/>
<path style=" stroke:none;fill-rule:evenodd;fill:rgb(99.198914%,72.499084%,15.299988%);fill-opacity:1;" d="M 107.703125 34.664063 L 112.550781 45.484375 L 115.164063 43.992188 L 106.582031 32.242188 L 107.703125 34.664063 "/>
<path style=" stroke:none;fill-rule:evenodd;fill:rgb(99.198914%,72.499084%,15.299988%);fill-opacity:1;" d="M 95.578125 46.976563 L 105.277344 54.066406 L 106.582031 51.269531 L 93.527344 45.484375 L 95.578125 46.976563 "/>
<path style=" stroke:none;fill-rule:evenodd;fill:rgb(99.198914%,72.499084%,15.299988%);fill-opacity:1;" d="M 88.675781 63.390625 L 103.039063 64.882813 L 103.039063 61.898438 Z M 88.675781 63.390625 "/>
<path style=" stroke:none;fill-rule:evenodd;fill:rgb(99.198914%,72.499084%,15.299988%);fill-opacity:1;" d="M 93.339844 81.296875 L 106.582031 75.515625 L 105.089844 72.90625 Z M 93.339844 81.296875 "/>
<path style=" stroke:none;fill-rule:evenodd;fill:rgb(99.198914%,72.499084%,15.299988%);fill-opacity:1;" d="M 106.582031 94.539063 L 115.164063 82.976563 L 112.363281 81.296875 C 110.375 85.664063 108.503906 90.136719 106.582031 94.539063 "/>
<path style=" stroke:none;fill-rule:evenodd;fill:rgb(99.198914%,72.499084%,15.299988%);fill-opacity:1;" d="M 121.191406 83.671875 C 111.460938 82.046875 104.15625 73.542969 104.15625 63.578125 C 104.15625 52.199219 113.296875 43.058594 124.675781 43.058594 C 126.988281 43.058594 129.300781 43.398438 131.289063 44.238281 C 130.246094 58.648438 128.121094 72.171875 121.191406 83.671875 "/>
<path style=" stroke:none;fill-rule:evenodd;fill:rgb(99.198914%,72.499084%,15.299988%);fill-opacity:1;" d="M 117.015625 89.601563 C 118.3125 88.015625 119.488281 86.378906 120.554688 84.699219 L 117.402344 83.910156 L 117.015625 89.601563 "/>
<path style=" stroke:none;fill-rule:nonzero;fill:rgb(0%,28.999329%,56.498718%);fill-opacity:1;" d="M 143.746094 77.65625 L 151.019531 77.65625 L 151.019531 77.007813 L 149.9375 76.914063 C 148.796875 76.796875 148.796875 76.644531 148.796875 72.957031 L 148.796875 68.976563 L 149.90625 68.976563 C 150.535156 68.976563 151.289063 68.976563 151.769531 69.367188 C 152.160156 69.699219 152.851563 70.847656 153.632813 72.324219 L 154.835938 74.652344 C 155.734375 76.3125 157.117188 77.65625 159.101563 77.65625 L 161.414063 77.65625 L 161.414063 77.007813 C 160.753906 77.007813 160.214844 76.886719 159.914063 76.703125 C 159.160156 76.28125 157.839844 74.5 156.578125 72.234375 C 155.765625 70.785156 154.773438 68.855469 154.324219 68.011719 C 155.976563 67.226563 158.472656 65.566406 158.472656 62.757813 C 158.472656 58.175781 154.445313 57.765625 151.589844 57.765625 L 143.746094 57.765625 L 143.746094 58.414063 L 144.828125 58.503906 C 146 58.625 146 58.777344 146 62.457031 L 146 72.957031 C 146 76.644531 146 76.796875 144.828125 76.914063 L 143.746094 77.007813 Z M 148.796875 59 C 149.394531 58.882813 150.027344 58.761719 150.65625 58.761719 C 153 58.761719 155.316406 59.84375 155.316406 63.371094 C 155.316406 66.777344 153.03125 68.132813 150.507813 68.132813 L 148.796875 68.132813 Z M 168.117188 78.105469 C 171.933594 78.105469 175.507813 75.636719 175.507813 70.421875 C 175.507813 66.265625 172.5625 63.492188 168.265625 63.492188 C 164.570313 63.492188 160.902344 66.050781 160.902344 71.054688 C 160.902344 75.785156 164.300781 78.105469 168.117188 78.105469 Z M 163.667969 70.695313 C 163.667969 67.800781 164.75 64.546875 167.875 64.546875 C 171.390625 64.546875 172.742188 67.648438 172.742188 71.234375 C 172.742188 74.429688 171.363281 77.050781 168.628906 77.050781 C 165.230469 77.050781 163.667969 74.039063 163.667969 70.695313 Z M 186.929688 71.234375 C 187.769531 69.1875 189.152344 65.933594 189.84375 65.238281 C 190.050781 65.027344 190.382813 64.90625 190.652344 64.816406 L 191.285156 64.605469 L 191.285156 63.945313 L 185.183594 63.945313 L 185.183594 64.605469 L 186.777344 64.878906 C 187.136719 64.9375 187.679688 64.996094 187.679688 65.359375 C 187.679688 66.203125 184.644531 73.855469 184.28125 74.730469 L 180.855469 66.355469 C 180.707031 65.992188 180.558594 65.570313 180.558594 65.449219 C 180.558594 65.117188 181.066406 64.996094 181.519531 64.878906 L 182.691406 64.605469 L 182.691406 63.945313 L 175.777344 63.945313 L 175.777344 64.605469 L 176.5625 64.847656 C 177.730469 65.210938 177.730469 65.691406 178.121094 66.683594 L 181.730469 74.851563 C 182.121094 75.785156 182.628906 76.929688 182.628906 78.167969 C 182.628906 81 179.65625 81.632813 177.972656 83.109375 C 177.761719 83.378906 177.582031 84.042969 177.523438 84.675781 C 177.730469 84.707031 177.914063 84.734375 178.121094 84.734375 C 181.128906 84.734375 182.511719 81.660156 183.652344 78.917969 Z M 204.234375 76.929688 C 204.117188 76.992188 203.996094 77.050781 203.695313 77.050781 C 202.042969 77.050781 202.042969 74.792969 202.042969 72.683594 L 202.042969 68.371094 C 202.042969 65.300781 201.320313 63.492188 197.894531 63.492188 C 194.710938 63.492188 192.789063 65.511719 191.886719 66.714844 C 192.097656 67.257813 192.335938 67.558594 192.667969 67.921875 L 192.90625 67.921875 C 193.480469 66.804688 194.230469 64.90625 196.632813 64.90625 C 198.886719 64.90625 199.429688 66.625 199.429688 68.613281 L 199.429688 69.308594 C 196.785156 70.089844 191.585938 71.265625 191.585938 75.183594 C 191.585938 76.839844 193.089844 78.105469 195.3125 78.105469 C 197.65625 78.105469 198.765625 77.472656 199.730469 76.839844 C 200.027344 77.472656 200.570313 78.105469 202.101563 78.105469 C 203.363281 78.105469 203.996094 77.625 204.386719 77.351563 Z M 199.429688 70.722656 L 199.429688 75.816406 C 199.21875 76.117188 198.46875 77.050781 197.144531 77.050781 C 195.433594 77.050781 194.351563 76.027344 194.351563 74.308594 C 194.351563 71.476563 197.296875 70.722656 199.007813 70.722656 Z M 205.738281 77.65625 L 212.441406 77.65625 L 212.441406 77.007813 L 211.746094 76.914063 C 210.636719 76.796875 210.394531 76.796875 210.394531 74.714844 L 210.394531 55.957031 C 209.132813 55.957031 206.699219 56.230469 205.738281 56.441406 L 205.828125 57.109375 L 206.277344 57.046875 C 206.339844 57.046875 206.550781 57.019531 206.699219 57.019531 C 207.78125 57.019531 207.78125 58.402344 207.78125 60.785156 L 207.78125 74.714844 C 207.78125 76.796875 207.511719 76.796875 206.460938 76.914063 L 205.738281 77.007813 Z M 228.636719 65.300781 C 227.015625 64.335938 225.722656 63.371094 225.722656 61.59375 C 225.722656 59.574219 227.253906 58.308594 228.996094 58.308594 C 232.394531 58.308594 232.875 60.929688 233.175781 62.4375 L 233.925781 62.4375 C 233.925781 61.683594 233.863281 59.242188 233.625 58.277344 C 232.84375 57.796875 231.339844 57.3125 229.476563 57.3125 C 226.292969 57.3125 223.226563 58.851563 223.226563 62.527344 C 223.226563 64.785156 224.820313 66.65625 226.53125 67.589844 L 228.457031 68.644531 C 230.800781 69.699219 232.632813 71.207031 232.632813 73.40625 C 232.632813 75.757813 231.101563 77.113281 229.027344 77.113281 C 224.910156 77.113281 223.800781 73.527344 223.46875 71.355469 L 222.507813 71.597656 C 222.507813 73.496094 222.925781 75.726563 223.46875 76.902344 C 224.398438 77.472656 225.84375 78.105469 228.1875 78.105469 C 231.371094 78.105469 235.128906 76.539063 235.128906 72.472656 C 235.128906 68.855469 232.664063 67.589844 230.289063 66.234375 Z M 252.886719 76.386719 L 252.164063 76.480469 C 252.015625 76.507813 251.804688 76.507813 251.683594 76.507813 C 250.84375 76.507813 250.84375 75.273438 250.84375 72.710938 L 250.84375 63.492188 C 249.792969 63.492188 247.058594 64.304688 246.1875 64.578125 L 246.304688 65.300781 L 246.96875 65.117188 C 247.027344 65.117188 247.238281 65.089844 247.386719 65.089844 C 248.230469 65.089844 248.230469 65.933594 248.230469 68.886719 L 248.230469 75.726563 C 247.777344 76.058594 246.636719 76.691406 245.105469 76.691406 C 242.128906 76.691406 241.496094 74.941406 241.496094 72.53125 L 241.496094 63.492188 C 240.445313 63.492188 237.710938 64.304688 236.839844 64.578125 L 236.960938 65.300781 L 237.621094 65.117188 C 237.679688 65.117188 237.890625 65.089844 238.042969 65.089844 C 238.882813 65.089844 238.882813 65.933594 238.882813 68.886719 L 238.882813 72.683594 C 238.882813 75.96875 239.304688 78.105469 243.753906 78.105469 C 246.066406 78.105469 247.476563 77.203125 248.378906 76.597656 C 248.53125 77.261719 248.800781 77.746094 249.039063 78.105469 C 250.601563 77.804688 251.714844 77.5625 253.066406 77.082031 Z M 254.75 77.65625 L 261.449219 77.65625 L 261.449219 77.007813 L 260.761719 76.914063 C 259.648438 76.796875 259.40625 76.644531 259.40625 74.714844 L 259.40625 66.535156 C 259.949219 65.84375 260.910156 64.90625 262.503906 64.90625 C 266.078125 64.90625 266.078125 67.835938 266.078125 70.667969 L 266.078125 74.714844 C 266.078125 76.644531 265.808594 76.796875 264.757813 76.914063 L 264.035156 77.007813 L 264.035156 77.65625 L 270.734375 77.65625 L 270.734375 77.007813 L 270.046875 76.914063 C 268.933594 76.796875 268.691406 76.644531 268.691406 74.714844 L 268.691406 70.214844 C 268.691406 66.746094 268.691406 63.492188 264.003906 63.492188 C 261.722656 63.492188 260.097656 64.757813 259.40625 65.390625 L 259.40625 63.492188 C 258.355469 63.492188 255.621094 64.273438 254.75 64.546875 L 254.871094 65.269531 L 255.53125 65.089844 C 255.589844 65.089844 255.800781 65.058594 255.953125 65.058594 C 256.792969 65.058594 256.792969 65.902344 256.792969 68.859375 L 256.792969 74.714844 C 256.792969 76.644531 256.523438 76.796875 255.472656 76.914063 L 254.75 77.007813 Z M 287.863281 76.328125 L 287.324219 76.417969 C 287.203125 76.449219 286.964844 76.449219 286.84375 76.449219 C 286.03125 76.449219 285.851563 75.757813 285.851563 74.160156 L 285.851563 55.957031 C 284.589844 55.957031 282.15625 56.230469 281.191406 56.441406 L 281.285156 57.101563 L 281.734375 57.042969 C 281.796875 57.042969 282.003906 57.011719 282.15625 57.011719 C 283.238281 57.011719 283.238281 58.398438 283.238281 60.78125 L 283.238281 63.761719 C 282.574219 63.550781 281.796875 63.492188 281.074219 63.492188 C 277.46875 63.492188 272.6875 65.660156 272.6875 71.417969 C 272.6875 76.207031 276.234375 78.105469 279.359375 78.105469 C 281.433594 78.105469 282.726563 77.230469 283.417969 76.871094 C 283.597656 77.261719 283.777344 77.773438 283.988281 78.105469 C 285.011719 77.984375 286.664063 77.65625 288.046875 77.023438 Z M 283.238281 76.027344 C 282.875 76.238281 281.765625 76.691406 280.863281 76.691406 C 277.828125 76.691406 275.453125 74.1875 275.453125 70.363281 C 275.453125 66.65625 277.4375 64.546875 280.230469 64.546875 C 281.523438 64.546875 282.515625 64.9375 283.238281 65.601563 Z M 302.710938 76.929688 C 302.589844 76.992188 302.46875 77.050781 302.167969 77.050781 C 300.515625 77.050781 300.515625 74.792969 300.515625 72.683594 L 300.515625 68.371094 C 300.515625 65.300781 299.792969 63.492188 296.367188 63.492188 C 293.183594 63.492188 291.261719 65.511719 290.359375 66.714844 C 290.570313 67.257813 290.808594 67.558594 291.140625 67.921875 L 291.378906 67.921875 C 291.949219 66.804688 292.703125 64.90625 295.105469 64.90625 C 297.359375 64.90625 297.902344 66.625 297.902344 68.613281 L 297.902344 69.308594 C 295.257813 70.089844 290.058594 71.265625 290.058594 75.183594 C 290.058594 76.839844 291.558594 78.105469 293.785156 78.105469 C 296.128906 78.105469 297.238281 77.472656 298.199219 76.839844 C 298.503906 77.472656 299.042969 78.105469 300.574219 78.105469 C 301.839844 78.105469 302.46875 77.625 302.859375 77.351563 Z M 297.902344 70.722656 L 297.902344 75.816406 C 297.691406 76.117188 296.9375 77.050781 295.617188 77.050781 C 293.902344 77.050781 292.824219 76.027344 292.824219 74.308594 C 292.824219 71.476563 295.769531 70.722656 297.480469 70.722656 Z M 304.179688 77.65625 L 311.363281 77.65625 L 311.363281 77.007813 L 310.671875 76.914063 C 309.078125 76.796875 308.839844 76.796875 308.839844 74.714844 L 308.839844 66.625 C 308.839844 66.171875 309.320313 65.449219 310.28125 65.449219 C 310.703125 65.449219 312.324219 65.960938 312.746094 66.113281 C 313.4375 65.570313 313.855469 65.117188 314.277344 64.394531 C 313.886719 64.15625 312.925781 63.492188 311.992188 63.492188 C 310.460938 63.492188 309.171875 64.96875 308.71875 65.449219 C 308.71875 64.636719 308.628906 64.003906 308.507813 63.492188 C 307.667969 63.492188 305.652344 64.0625 304.152344 64.605469 L 304.390625 65.328125 L 304.660156 65.238281 C 304.902344 65.179688 305.144531 65.058594 305.382813 65.058594 C 306.226563 65.058594 306.226563 65.722656 306.226563 68.832031 L 306.226563 74.714844 C 306.226563 76.796875 305.953125 76.796875 304.902344 76.914063 L 304.179688 77.007813 Z M 327.738281 76.929688 C 327.621094 76.992188 327.5 77.050781 327.199219 77.050781 C 325.546875 77.050781 325.546875 74.792969 325.546875 72.683594 L 325.546875 68.371094 C 325.546875 65.300781 324.824219 63.492188 321.398438 63.492188 C 318.214844 63.492188 316.289063 65.511719 315.390625 66.714844 C 315.601563 67.257813 315.839844 67.558594 316.171875 67.921875 L 316.410156 67.921875 C 316.980469 66.804688 317.734375 64.90625 320.136719 64.90625 C 322.390625 64.90625 322.933594 66.625 322.933594 68.613281 L 322.933594 69.308594 C 320.289063 70.089844 315.089844 71.265625 315.089844 75.183594 C 315.089844 76.839844 316.59375 78.105469 318.816406 78.105469 C 321.160156 78.105469 322.269531 77.472656 323.234375 76.839844 C 323.53125 77.472656 324.074219 78.105469 325.605469 78.105469 C 326.867188 78.105469 327.5 77.625 327.890625 77.351563 Z M 322.933594 70.722656 L 322.933594 75.816406 C 322.722656 76.117188 321.972656 77.050781 320.648438 77.050781 C 318.9375 77.050781 317.855469 76.027344 317.855469 74.308594 C 317.855469 71.476563 320.800781 70.722656 322.511719 70.722656 Z M 329.421875 77.65625 L 336.125 77.65625 L 336.125 77.007813 L 335.433594 76.914063 C 334.320313 76.796875 334.078125 76.585938 334.078125 74.714844 L 334.078125 66.683594 C 334.53125 66.171875 335.523438 64.90625 337.324219 64.90625 C 340.421875 64.90625 340.421875 67.925781 340.421875 69.101563 L 340.421875 74.714844 C 340.421875 76.585938 340.152344 76.796875 339.097656 76.914063 L 338.378906 77.007813 L 338.378906 77.65625 L 345.078125 77.65625 L 345.078125 77.007813 L 344.386719 76.914063 C 343.277344 76.796875 343.035156 76.585938 343.035156 74.714844 L 343.035156 70.457031 C 343.035156 67.894531 343.003906 67.320313 342.886719 66.355469 C 343.726563 65.480469 344.6875 64.90625 346.039063 64.90625 C 349.375 64.90625 349.375 67.777344 349.375 70.519531 L 349.375 74.714844 C 349.375 76.585938 349.105469 76.796875 348.054688 76.914063 L 347.332031 77.007813 L 347.332031 77.65625 L 354.035156 77.65625 L 354.035156 77.007813 L 353.34375 76.914063 C 352.230469 76.796875 351.988281 76.585938 351.988281 74.714844 L 351.988281 69.792969 C 351.988281 66.804688 351.988281 63.492188 347.0625 63.492188 C 344.867188 63.492188 343.214844 64.847656 342.496094 65.449219 C 342.164063 64.578125 341.082031 63.492188 338.558594 63.492188 C 336.183594 63.492188 334.773438 64.878906 334.078125 65.539063 L 334.078125 63.492188 C 333.027344 63.492188 330.296875 64.273438 329.421875 64.546875 L 329.542969 65.269531 L 330.203125 65.089844 C 330.265625 65.089844 330.476563 65.058594 330.625 65.058594 C 331.464844 65.058594 331.464844 65.902344 331.464844 68.859375 L 331.464844 74.714844 C 331.464844 76.585938 331.195313 76.796875 330.144531 76.914063 L 329.421875 77.007813 L 329.421875 77.65625 "/>
</g>
</svg>
